<?xml version="1.0" encoding="utf-8"?>
<!-- Generator: Adobe Illustrator 22.1.0, SVG Export Plug-In . SVG Version: 6.00 Build 0)  -->
<svg version="1.1" id="Слой_1" xmlns="http://www.w3.org/2000/svg" xmlns:xlink="http://www.w3.org/1999/xlink" x="0px" y="0px"
	 viewBox="0 0 1920 626" style="enable-background:new 0 0 1920 626;" xml:space="preserve">
<style type="text/css">
	.st0{fill:#B53B56;}
</style>
<path class="st0" d="M1920,242c-35.8,102.3-82.3,177.6-118,227c-97.6,135-172.9,156.9-196,157c-0.8,0-4.6,0-27,0c-21,0-42,0-63,0
	c-96.3,0-192.7,0-289,0c-127.9,0-286,0-286,0c-310.7,0.1-366.6,1-561,1c-90.3,0-220.9-0.2-380-1C0,417.3,0,208.7,0,0h1920
	C1920,80.7,1920,161.3,1920,242z"/>
<path class="st0" d="M2002,561"/>
</svg>
