<?xml version="1.0" encoding="utf-8"?>
<!-- Generator: Adobe Illustrator 22.1.0, SVG Export Plug-In . SVG Version: 6.00 Build 0)  -->
<svg version="1.1" id="Слой_1" xmlns="http://www.w3.org/2000/svg" xmlns:xlink="http://www.w3.org/1999/xlink" x="0px" y="0px"
	 viewBox="0 0 211.1 44.2" style="enable-background:new 0 0 211.1 44.2;" xml:space="preserve">
<style type="text/css">
	.st0{fill:#D4044D;}
</style>
<g id="text">
	<path class="st0" d="M17.3,13.2c-4.1,0-7.8,1.4-11.1,4.3s-5.2,6.7-6,11.6c-0.7,4.7,0.1,8.4,2.3,11s5.7,4,10.5,4
		c4.4,0,8-0.7,10.9-2.2l0.7-5c0.1-0.5,0.1-0.9-0.1-1c-0.1-0.1-0.4-0.1-0.8,0.1c-2.4,1.1-5,1.7-7.8,1.7c-5.1,0-7.5-2.1-7.1-6.4h17
		c1.5,0,2.2-0.4,2.5-2l0.3-1.9c0.6-4.4,0-7.8-2-10.4C24.7,14.4,21.6,13.2,17.3,13.2z M20.5,25.6H9.7c0.5-1.8,1.4-3.3,2.6-4.5
		c1.2-1.2,2.6-1.8,4-1.8C19.8,19.3,21.2,21.4,20.5,25.6z"/>
	<path class="st0" d="M96.1,14H90l1.2-8.9l-9.4,2.6L80.9,14h-4.4c-0.3,0-0.4,0.2-0.5,0.5l-0.7,5.1c-0.1,0.8,0,1.1,0.8,1.1H80
		l-1.9,13.5c-0.9,6.6,1.8,10,8.2,10c2.7,0,4.8-0.4,6.2-1.1l0.8-5.8c0-0.3,0-0.5-0.2-0.6c-0.1-0.1-0.4,0-0.6,0.1
		c-0.8,0.3-1.5,0.4-2.2,0.4c-2.4,0-3.4-1.5-3-4.6l1.6-11.9H94c1,0,1.5,0,1.7-1.1l0.7-5.1C96.6,14.1,96.4,14,96.1,14z"/>
	<path class="st0" d="M144.2,13.2c-4.9,0-9.1,1.4-12.4,4.1s-5.3,6.6-5.9,11.4c-0.7,4.7,0.2,8.4,2.7,11.2c2.4,2.7,6.1,4.1,11,4.1
		c5,0,9.1-1.4,12.3-4.2c3.3-2.8,5.2-6.7,5.9-11.6c0.6-4.5-0.3-8.1-2.7-10.9C152.7,14.6,149.1,13.2,144.2,13.2z M148.5,28.4
		c-0.8,5.8-3.4,8.7-7.7,8.7c-4.6,0-6.4-2.8-5.7-8.5c0.4-2.7,1.3-4.8,2.7-6.3s3.2-2.2,5.3-2.2C147.5,20.2,149.3,22.9,148.5,28.4z"/>
	<path class="st0" d="M65,9.3c1.5,0,2.9-0.4,4-1.3s1.7-2,1.9-3.4s-0.1-2.5-1-3.3c-0.8-0.9-2-1.3-3.6-1.3c-1.5,0-2.8,0.4-3.9,1.3
		s-1.7,2-1.9,3.3s0.2,2.4,1,3.3S63.5,9.3,65,9.3z"/>
	<path class="st0" d="M71.1,36.9c-0.3,0-0.5,0.1-0.8,0.1c-0.5,0.1-1,0.1-1.5,0.1c-1,0-1.7-0.3-2.2-1c-0.5-0.6-0.7-1.6-0.5-2.8
		l2.6-18.9c0-0.3-0.1-0.5-0.4-0.5h-7.9c-0.3,0-0.6,0.2-0.7,0.5l-2.9,20.9c-0.2,1.3-0.2,2.5,0.1,3.6c0.2,1.1,0.6,2,1.2,2.7
		c0.6,0.8,1.4,1.3,2.3,1.7c0.9,0.4,2,0.6,3.2,0.6c1.3,0,2.6-0.1,3.8-0.3c1.2-0.2,2.4-0.4,3.6-0.7l0.8-5.6c0-0.3,0-0.5-0.1-0.6
		C71.5,36.8,71.3,36.8,71.1,36.9z"/>
	<path class="st0" d="M202.8,13.2c-4.4,0-7.9,1.8-10.6,5.5c-1-3.7-3.6-5.5-7.8-5.5c-2,0-3.9,0.5-5.8,1.5c-1.8,1-3.3,2.3-4.5,3.8H174
		l0.6-4.1c0-0.4-0.1-0.5-0.5-0.5h-8c-0.3,0-0.5,0.2-0.6,0.5l-3.9,28.1c0,0.2,0,0.4,0.1,0.6c0.1,0.1,0.2,0.2,0.3,0.2h7.7
		c0.3,0,0.5,0,0.7-0.2c0.1-0.1,0.2-0.3,0.2-0.6l2.2-15.6c0.3-2.1,1-3.8,2.1-5s2.4-1.8,4-1.8c3.1,0,4.3,2.1,3.8,6.2l-2.2,16.3
		c0,0.2,0,0.4,0.1,0.6c0.1,0.1,0.2,0.2,0.4,0.2h7.9c0.2,0,0.3-0.1,0.5-0.1c0.2-0.1,0.2-0.4,0.3-0.6l2.2-15.7c0.3-1.9,1-3.5,2.1-4.8
		s2.4-1.9,3.9-1.9c3.1,0,4.4,2.1,3.8,6.4l-2.2,16c0,0.2,0,0.4,0,0.5c0.1,0.1,0.2,0.2,0.4,0.2h7.8c0.3,0,0.4,0,0.5-0.2
		c0.1-0.1,0.2-0.3,0.2-0.6l2.4-17.5C211.9,17.2,209.2,13.2,202.8,13.2z"/>
	<path class="st0" d="M44.8,19.4L44.8,19.4l0.6-4.9c0-0.3,0-0.5-0.4-0.5h-8c-0.3,0-0.6,0.1-0.7,0.5l-3.9,28.1c0,0.2,0,0.4,0.1,0.6
		c0.1,0.1,0.2,0.2,0.3,0.2h7.7c0.7,0,0.9-0.1,1-0.8l1.8-13.3c0.3-2.5,1.2-4.4,2.5-5.9c1.3-1.4,3-2.2,4.9-2.2c0.9,0,1.7,0.1,2.4,0.3
		c0.4,0.1,0.8,0.2,1,0.1s0.4-0.3,0.4-0.6l1-7.3c-0.5-0.2-1.2-0.3-2.2-0.3C49.6,13.4,46.8,15.4,44.8,19.4z"/>
	<path class="st0" d="M103.7,17.6c-3.4,2.9-5.4,6.8-6.1,11.8c-0.6,4.3,0.3,7.9,2.7,10.6s5.9,4.1,10.4,4.1c3.9,0,6.9-0.6,9.1-1.8
		l0.9-6.1c0.1-0.4,0-0.6-0.2-0.7s-0.5,0-0.9,0.2c-1.9,1-3.8,1.5-5.7,1.5c-2.5,0-4.4-0.7-5.7-2.2c-1.2-1.5-1.7-3.5-1.3-6.1
		c0.4-2.7,1.4-4.8,3.2-6.3c1.7-1.5,3.9-2.3,6.5-2.3c1.6,0,3.1,0.3,4.4,1c0.9,0.5,1.7,0.5,1.9-0.7l0.8-5.9c-1.4-0.9-3.9-1.4-7.3-1.4
		C111.3,13.2,107.1,14.7,103.7,17.6z"/>
</g>
</svg>
