<?xml version="1.0" encoding="utf-8"?>
<!-- Generator: Adobe Illustrator 22.1.0, SVG Export Plug-In . SVG Version: 6.00 Build 0)  -->
<svg version="1.1" id="Слой_1" xmlns="http://www.w3.org/2000/svg" xmlns:xlink="http://www.w3.org/1999/xlink" x="0px" y="0px"
	 viewBox="0 0 166 166" style="enable-background:new 0 0 166 166;" xml:space="preserve">
	<style type="text/css">
		.st1{fill:url(#SVGID_2_);}
		#rotate{
			transform-origin: 80px center;
			animation: rotate 2s linear infinite;
		}
		@keyframes rotate{
			0%{transform: rotate(0);}
			100%{transform: rotate(360deg);}
		}
	</style>
	<path class="st1" d="M47.8,63.9c1.3-0.8,2.7-1.3,3.8-1.4c0.2,0,0.3,0,0.5,0s0.2-0.2,0.2-0.2c4.9-0.3,8.3,3.3,8.3,7.6
		c0,8.5-6.9,13.7-20.9,12.5C40.3,74.6,42.6,67,47.8,63.9z"/>
	<linearGradient id="SVGID_2_" gradientUnits="userSpaceOnUse" x1="134" y1="83" x2="33.8" y2="83">
		<stop  offset="0" style="stop-color:#D40431"/>
		<stop  offset="1" style="stop-color:#D40468"/>
	</linearGradient>
	<path class="st1" d="M77.9,26.9c31,0,56.1,25.1,56.1,56.1s-25.1,56.1-56.1,56.1c-11.2,0-21.6-3.3-30.3-8.9c1.2,0.1,2.5,0.2,3.8,0.2
		c23,0,36-18.6,37.8-25.2c0.5-1.4,0.2-2-0.5-2.5c-0.6-0.5-1.4-0.3-2,0.2c-19.2,10.7-40.1,9.2-45.6-6.6c20.6,3.5,49.4,0.5,49.4-24.3
		c0-11.2-11.2-27.4-37-27.4c-7.3,0-13.9,1.4-19.7,4C43.9,35.3,59.9,26.9,77.9,26.9z"/>
	<path id="rotate" class="st1" d="M91.1,16.1c36.2,0.9,65.3,30.5,65.3,66.9s-29.1,66-65.3,66.9c30.2-7.2,52.7-34.4,52.7-66.9
		C143.8,50.6,121.4,23.4,91.1,16.1z"/>
</svg>
